<svg xmlns="http://www.w3.org/2000/svg" data-name="Layer 1" viewBox="0 0 48 48"><path d="M13 26H31a1 1 0 000-2H13a1 1 0 000 2zM13 18H31a1 1 0 000-2H13a1 1 0 000 2zM21 32H13a1 1 0 000 2h8a1 1 0 000-2z"/><path d="M37,29.08V9a3,3,0,0,0-3-3H27a2,2,0,0,0-2-2H19a2,2,0,0,0-2,2H10A3,3,0,0,0,7,9V39a3,3,0,0,0,3,3H27.73A8,8,0,1,0,37,29.08ZM19,6h6V7h0V8H19ZM9,39V9a1,1,0,0,1,1-1h7a2,2,0,0,0,2,2h6a2,2,0,0,0,2-2h7a1,1,0,0,1,1,1V28.26A8.24,8.24,0,0,0,33,28a8,8,0,0,0-6.92,12H10A1,1,0,0,1,9,39Zm24,3a5.94,5.94,0,0,1-4.18-1.71h0A6,6,0,1,1,33,42Z"/><path d="M36,35H34V32a1,1,0,0,0-2,0v4a1,1,0,0,0,1,1h3a1,1,0,0,0,0-2Z"/></svg>